<svg width="268" height="58" viewBox="0 0 268 58" fill="none" xmlns="http://www.w3.org/2000/svg">
<path d="M79.246 0C64.8135 0 54.3535 10.0792 54.3535 24.0708C54.3535 38.0623 64.8135 48.1416 79.246 48.1416C93.6785 48.1416 104.139 38.0623 104.139 24.0708C104.139 10.0792 93.6782 0 79.246 0ZM79.3422 36.5813C72.7598 36.5813 67.4234 30.9798 67.4234 24.069C67.4234 17.1593 72.7598 11.5578 79.3422 11.5578C85.9245 11.5578 91.2599 17.1593 91.2599 24.069C91.2599 30.9798 85.9245 36.5813 79.3422 36.5813Z" fill="white"/>
<path d="M267.755 46.5251H252.86L243.114 32.8226L233.279 46.5251H218.555L235.406 23.146L220.026 1.61432H234.921L243.286 13.5447L251.615 1.61432H266.327L250.992 23.0596L267.755 46.5251Z" fill="white"/>
<path d="M0 46.5251V1.61432H13.017L32.5367 27.3565V1.61432H45.2117V46.5251H32.4481L12.6751 20.6546V46.5251H0Z" fill="white"/>
<path d="M149.671 41.1783C153.192 41.1783 156.564 42.6009 159.937 45.9227C148.199 44.8206 134.404 57.5641 123.645 57.5641C120.804 57.5641 118.215 56.5907 115.992 54.1759C126.104 54.1759 138.292 41.1783 149.671 41.1783Z" fill="white"/>
<path d="M125.871 47.3064C117.508 23.5617 112.747 9.12161 103.077 1.50061C105.332 1.19342 107.003 1.06921 109.049 1.06921C125.584 1.06921 126.944 10.1803 134.606 37.2219C138.947 31.6151 144.48 20.4128 144.48 9.92038C144.48 5.4913 143.388 3.45187 141.701 1.61397C144.273 1.30503 146.7 1.05662 149.181 1.07026C155.712 1.10525 158.818 3.72477 158.818 10.6912C158.818 22.1741 147.06 38.9482 140.759 44.7215L133.314 47.3064H125.871Z" fill="white"/>
<path d="M214.511 24.0704C214.511 10.4938 204.818 0.000335693 190.385 0.000335693C177.997 0.000335693 166.259 10.0796 166.259 24.0704C166.259 38.062 176.719 48.1422 191.152 48.1422C200.896 48.1422 208.609 43.8706 212.248 39.5874L203.243 32.2453C200.368 34.8015 196.979 36.5809 191.503 36.5809C186.124 36.5809 181.242 33.7735 179.866 28.1636H214.172C214.378 26.8393 214.511 25.4815 214.511 24.0704ZM180.034 19.2099C181.253 14.6007 185.343 11.0368 190.415 11.0368C195.948 11.0368 199.662 14.4926 200.896 19.2099H180.034Z" fill="white"/>
</svg>
