<svg width="301" height="49" viewBox="0 0 301 49" fill="none" xmlns="http://www.w3.org/2000/svg">
<path fill-rule="evenodd" clip-rule="evenodd" d="M32.5363 1.59709V17.5147H14.1523V1.59709H0.753174V46.4785H14.1523V29.308H32.5363V46.4788H45.935V1.59709H32.5363ZM78.0024 36.8569C71.4252 36.8569 66.0922 31.2599 66.0922 24.3527C66.0922 17.4486 71.4256 11.8499 78.0024 11.8499C84.5795 11.8499 89.9129 17.4486 89.9129 24.3527C89.9125 31.2596 84.5795 36.8569 78.0024 36.8569ZM77.9062 0.300446C63.483 0.300446 53.0295 10.372 53.0295 24.3541C53.0295 38.3369 63.483 48.4098 77.9062 48.4098C92.3295 48.4098 102.783 38.3369 102.783 24.3541C102.783 10.3723 92.3295 0.300446 77.9062 0.300446ZM290.086 30.8047C288.557 34.5568 284.769 37.177 280.872 37.177C273.879 37.177 268.803 31.804 268.803 24.3989C268.803 16.993 273.879 11.6186 280.872 11.6186C284.769 11.6186 288.557 14.2402 290.086 17.993L290.257 18.4146L301 13.2357L300.805 12.839C298.007 7.13912 292.28 0.34348 280.873 0.34348C266.573 0.34348 256.195 10.4594 256.195 24.3992C256.195 38.3369 266.573 48.4546 280.873 48.4546C292.88 48.4546 298.515 40.6258 300.805 35.9591L301 35.561L290.257 30.3838L290.086 30.8047ZM235.204 23.8943L256.246 46.4792H239.764L224.187 30.0371V46.4792H211.065V1.59779H224.187V18.9076L238.985 1.59779H255.228L235.204 23.8943ZM177.39 0.342781C165.26 0.342781 159.695 8.17371 157.457 12.8418L157.267 13.2364L168.005 18.4139L168.176 17.9923C169.469 14.8193 172.922 11.6179 177.725 11.6179C182.679 11.6179 186.484 14.1115 188.256 18.486H173.086V29.625H188.492C186.852 34.4337 182.958 37.1763 177.725 37.1763C172.922 37.1763 169.469 33.9764 168.176 30.804L168.005 30.3824L157.264 35.5596L157.459 35.9577C159.749 40.6247 165.382 48.4532 177.389 48.4532C191.689 48.4532 202.069 38.3355 202.069 24.3978C202.069 10.4587 191.689 0.342781 177.39 0.342781ZM133.831 18.5017H122.346V12.0104H133.831C135.848 12.0104 137.256 13.3319 137.256 15.2223C137.256 17.1837 135.88 18.5017 133.831 18.5017ZM122.346 28.9808H134.221C136.542 28.9808 138.102 30.4052 138.102 32.5233C138.102 34.7094 136.616 36.0658 134.221 36.0658H122.346V28.9808ZM143.193 23.2982C147.004 21.7727 149.47 17.9115 149.47 13.2427C149.47 7.63385 145.371 1.59744 136.368 1.59744H110.328V46.4788H137.15C141.256 46.4788 144.668 45.2004 147.017 42.78C149.144 40.5887 150.317 37.5084 150.317 34.1079C150.317 29.0907 147.343 24.712 143.193 23.2982Z" fill="white"/>
</svg>
