<svg width="404" height="140" viewBox="0 0 404 140" fill="none" xmlns="http://www.w3.org/2000/svg">
<path d="M9.28616 13.125L3.09539 4.375L4.31989 3.50864L2.89875 1.5H4.96179V0H14.8856V1.5H24.8094V0H34.7332V1.5H44.657V0H54.5808V1.5H64.5046V0H74.4284V1.5H84.3522V0H94.276V1.5H104.2V0H114.124V1.5H124.047V0H133.971V1.5H143.895V0H153.819V1.5H163.742V0H173.666V1.5H183.59V0H193.514V1.5H203.438V0H213.361V1.5H223.285V0H233.209V1.5H243.133V0H253.057V1.5H262.98V0H272.904V1.5H282.828V0H292.752V1.5H302.675V0H312.599V1.5H322.523V0H332.447V1.5H342.371V0H352.294V1.5H356.454L358.93 5.208L360.178 4.375L366.021 13.125L364.773 13.958L370.616 22.708L371.864 21.875L377.707 30.625L376.459 31.458L382.302 40.208L383.55 39.375L389.393 48.125L388.145 48.958L393.988 57.708L395.236 56.875L401.079 65.625L399.831 66.458L402.196 70L399.831 73.542L401.079 74.375L395.236 83.125L393.988 82.292L388.145 91.042L389.393 91.875L383.55 100.625L382.302 99.792L376.459 108.542L377.707 109.375L371.864 118.125L370.616 117.292L364.773 126.042L366.021 126.875L360.178 135.625L358.93 134.792L356.454 138.5H352.294V140H342.371V138.5H332.447V140H322.523V138.5H312.599V140H302.675V138.5H292.752V140H282.828V138.5H272.904V140H262.98V138.5H253.056V140H243.133V138.5H233.209V140H223.285V138.5H213.361V140H203.438V138.5H193.514V140H183.59V138.5H173.666V140H163.742V138.5H153.819V140H143.895V138.5H133.971V140H124.047V138.5H114.124V140H104.2V138.5H94.2759V140H84.3522V138.5H74.4284V140H64.5046V138.5H54.5808V140H44.657V138.5H34.7332V140H24.8095V138.5H14.8857V140H4.96189V138.5H2.89875L4.31989 136.491L3.09538 135.625L9.28616 126.875L10.5107 127.741L16.7014 118.991L15.4769 118.125L21.6677 109.375L22.8922 110.241L29.083 101.491L27.8585 100.625L34.0492 91.875L35.2738 92.7414L41.4645 83.9914L40.24 83.125L46.4308 74.375L47.6553 75.2414L50.7507 70.8664L51.3636 70L50.7507 69.1336L47.6553 64.7586L46.4308 65.625L40.24 56.875L41.4645 56.0086L35.2738 47.2586L34.0492 48.125L27.8585 39.375L29.083 38.5086L22.8922 29.7586L21.6677 30.625L15.4769 21.875L16.7014 21.0086L10.5107 12.2586L9.28616 13.125Z" stroke="white" stroke-width="3" stroke-dasharray="10 10"/>
</svg>
